<svg preserveAspectRatio="none" width="100%" height="100%" overflow="visible" style="display: block;" viewBox="0 0 28 28" fill="none" xmlns="http://www.w3.org/2000/svg">
<g id="Group 1261154448">
<g id="Rectangle 544026">
</g>
<g id="Frame" clip-path="url(#clip0_5290_7757)">
<path id="Vector" d="M10.7917 10.6259V9.27865C10.7917 8.8256 11.1589 8.45833 11.612 8.45833H18.7214C19.1744 8.45833 19.5417 8.8256 19.5417 9.27865V16.388C19.5417 16.8411 19.1744 17.2083 18.7214 17.2083H17.3589" stroke="var(--stroke-0, #3F3536)" stroke-width="1.33333" stroke-linecap="round" stroke-linejoin="round"/>
<path id="Vector_2" d="M16.388 10.7917H9.27865C8.8256 10.7917 8.45833 11.1589 8.45833 11.612V18.7214C8.45833 19.1744 8.8256 19.5417 9.27865 19.5417H16.388C16.8411 19.5417 17.2083 19.1744 17.2083 18.7214V11.612C17.2083 11.1589 16.8411 10.7917 16.388 10.7917Z" stroke="var(--stroke-0, #3F3536)" stroke-width="1.33333" stroke-linejoin="round"/>
</g>
</g>
<defs>
<clipPath id="clip0_5290_7757">
<rect width="14" height="14" fill="white" transform="translate(7 7)"/>
</clipPath>
</defs>
</svg>
