<svg preserveAspectRatio="none" width="100%" height="100%" overflow="visible" style="display: block;" viewBox="0 0 28 28" fill="none" xmlns="http://www.w3.org/2000/svg">
<g id="Group 1261154447">
<g id="Rectangle 544025">
</g>
<g id="Frame">
<path id="Vector" d="M14 8.75V19.25C11.9583 19.25 10.4412 16.5781 10.4412 16.5781H8.75C8.42783 16.5781 8.16667 16.3169 8.16667 15.9947V11.9615C8.16667 11.6393 8.42783 11.3782 8.75 11.3782H10.4412C10.4412 11.3782 11.9583 8.75 14 8.75Z" stroke="var(--stroke-0, #3F3536)" stroke-width="1.16667" stroke-linejoin="round"/>
<path id="Vector_2" d="M16.3333 11.375C16.5151 11.5373 16.6799 11.7191 16.8245 11.9172C17.2488 12.498 17.5 13.219 17.5 14C17.5 14.7742 17.2531 15.4895 16.8355 16.0677C16.6882 16.2716 16.5197 16.4585 16.3333 16.625" stroke="var(--stroke-0, #3F3536)" stroke-width="1.16667" stroke-linecap="round" stroke-linejoin="round"/>
<path id="Vector_3" d="M16.9853 19.0123C18.6909 17.9943 19.8332 16.1305 19.8332 13.9998C19.8332 11.9023 18.7261 10.0634 17.0644 9.0354" stroke="var(--stroke-0, #3F3536)" stroke-width="1.16667" stroke-linecap="round"/>
</g>
</g>
</svg>
