<svg preserveAspectRatio="none" width="100%" height="100%" overflow="visible" style="display: block;" viewBox="0 0 24 24" fill="none" xmlns="http://www.w3.org/2000/svg">
<g id="Frame" clip-path="url(#clip0_4478_6309)">
<circle id="Ellipse 3427" cx="12" cy="12" r="12" fill="var(--fill-0, #EB483F)"/>
<path id="Vector" d="M13.7386 5.74153C15.2321 5.21157 16.8419 5.13241 17.8547 6.14512C18.8675 7.15791 18.7883 8.76765 18.2583 10.2612C18.0581 10.8253 17.7813 11.4097 17.4377 12C17.7813 12.5903 18.0581 13.1748 18.2583 13.7389C18.7883 15.2324 18.8675 16.8421 17.8547 17.855C16.8419 18.8677 15.2322 18.7885 13.7386 18.2585C13.1746 18.0584 12.5901 17.7816 11.9998 17.438C11.4095 17.7816 10.825 18.0584 10.2609 18.2585C8.76739 18.7885 7.15765 18.8677 6.14486 17.855C5.13219 16.8422 5.21138 15.233 5.74126 13.7395C5.94142 13.1755 6.2175 12.5903 6.56111 12C6.21749 11.4097 5.94142 10.8245 5.74126 10.2605C5.21136 8.76702 5.13213 7.15786 6.14486 6.14512C7.1576 5.13239 8.76675 5.21163 10.2602 5.74153C10.8243 5.94168 11.4095 6.21776 11.9998 6.56137C12.5899 6.21785 13.1747 5.94166 13.7386 5.74153ZM7.46603 13.3563C7.32035 13.6528 7.19733 13.9421 7.0983 14.2212C6.61496 15.5835 6.76996 16.4437 7.16298 16.8368C7.55603 17.2299 8.4164 17.3855 9.77861 16.9022C10.0576 16.8032 10.3464 16.6787 10.6427 16.5331C10.0649 16.0977 9.49318 15.6029 8.9447 15.0544C8.39613 14.5058 7.9014 13.9344 7.46603 13.3563ZM16.5329 13.3563C16.0974 13.9344 15.6028 14.5065 15.0541 15.0551C14.5057 15.6035 13.9339 16.0977 13.3561 16.5331C13.6526 16.6788 13.9419 16.8025 14.2209 16.9015C15.5832 17.3848 16.4435 17.2299 16.8365 16.8368C17.2296 16.4438 17.3845 15.5834 16.9013 14.2212C16.8022 13.9421 16.6785 13.6528 16.5329 13.3563ZM11.9998 8.26433C11.3192 8.72956 10.6286 9.29878 9.96353 9.96379C9.29854 10.6288 8.72929 11.3195 8.26408 12C8.72929 12.6805 9.29855 13.3713 9.96353 14.0363C10.6283 14.701 11.3188 15.2699 11.9991 15.735C12.6797 15.2698 13.371 14.7013 14.036 14.0363C14.701 13.3714 15.2696 12.6805 15.7348 12C15.2696 11.3195 14.701 10.6287 14.036 9.96379C13.371 9.2988 12.6803 8.72955 11.9998 8.26433ZM9.77861 7.09856C8.41624 6.6152 7.55605 6.77018 7.16298 7.16325C6.76991 7.55632 6.61493 8.4165 7.0983 9.77886C7.19726 10.0578 7.32047 10.3468 7.46603 10.643C7.90139 10.0651 8.39686 9.4942 8.94541 8.94566C9.49396 8.39711 10.0648 7.90166 10.6427 7.46629C10.3465 7.32073 10.0575 7.19752 9.77861 7.09856ZM16.8365 7.16325C16.4435 6.77023 15.5832 6.61527 14.2209 7.09856C13.9419 7.19757 13.6525 7.32064 13.3561 7.46629C13.9341 7.90166 14.5055 8.3964 15.0541 8.94496C15.6026 9.49344 16.0975 10.0651 16.5329 10.643C16.6784 10.3469 16.8023 10.0584 16.9013 9.77957C17.3846 8.41717 17.2297 7.55632 16.8365 7.16325Z" fill="var(--fill-0, white)"/>
</g>
<defs>
<clipPath id="clip0_4478_6309">
<rect width="24" height="24" fill="white"/>
</clipPath>
</defs>
</svg>
